<svg width="1549" height="1325" viewBox="0 0 1549 1325" fill="none" xmlns="http://www.w3.org/2000/svg">
<path d="M1547.86 940C1470.69 939.992 1395.05 918.498 1329.41 877.927C1263.77 837.355 1210.72 779.309 1176.2 710.29L1091.76 541.365C1083.8 525.465 1070.72 512.716 1054.61 505.182C1038.51 497.648 1020.34 495.771 1003.04 499.854C985.733 503.936 970.315 513.74 959.28 527.678C948.244 541.615 942.236 558.87 942.229 576.648V718.856H605.63V576.648C605.623 558.87 599.615 541.615 588.579 527.678C577.543 513.74 562.126 503.936 544.824 499.854C527.521 495.771 509.347 497.648 493.245 505.182C477.143 512.716 464.056 525.465 456.102 541.365L371.656 710.29C337.14 779.309 284.091 837.355 218.449 877.927C152.808 918.498 77.1671 939.992 0 940V824.509C55.764 824.697 110.465 809.256 157.901 779.939C205.337 750.621 243.61 708.599 268.38 658.637L352.827 489.712C372.411 450.544 404.647 419.137 444.309 400.578C483.972 382.018 528.74 377.395 571.358 387.456C613.977 397.517 651.95 421.673 679.126 456.011C706.302 490.349 721.089 532.857 721.09 576.648V603.393H826.769V576.648C826.712 532.808 841.476 490.236 868.662 455.844C895.849 421.452 933.862 397.259 976.53 387.193C1019.2 377.128 1064.02 381.78 1103.71 400.396C1143.4 419.011 1175.63 450.497 1195.17 489.74L1279.62 658.665C1304.4 708.62 1342.67 750.634 1390.11 779.947C1437.54 809.259 1492.24 824.696 1548 824.509L1547.86 940Z" fill="#EC5F2A"/>
<path d="M230.48 276V204H244.52V155.04H230.48V53.88H181.52V155.04H130.04L152 24H102.32L72.08 204H181.52V276H230.48ZM346.397 279.24H353.597C394.637 279.24 428.117 245.76 428.117 204.72V164.04C428.117 125.16 396.797 93.12 357.917 92.4L325.157 92.04V65.76H419.837V24H276.197V140.28L357.197 141.36C369.437 141.72 379.157 151.8 379.157 164.04V204.72C379.157 218.76 367.637 230.28 353.597 230.28H346.397C332.357 230.28 320.837 218.76 320.837 204.72V179.52H271.877V204.72C271.877 245.76 304.997 279.24 346.397 279.24ZM186.92 372H132.2L63.08 624H113.84L123.56 587.64H195.56L205.64 624H256.4L186.92 372ZM137.24 538.68L159.56 457.32L182.24 538.68H137.24ZM451.132 577.2H444.292C424.132 577.2 405.052 570 392.812 557.4L389.212 553.44C429.892 544.08 460.132 507 460.132 464.16C460.132 413.4 418.732 372 367.972 372H283.012H276.172V624H325.132V557.76L357.892 591.24C379.132 613.56 410.452 626.16 443.572 626.16L454.012 625.8L452.212 583.68L451.132 577.2ZM325.132 420.96H367.972C391.732 420.96 411.172 440.4 411.172 464.16C411.172 487.92 391.732 507 367.972 507H325.132V420.96ZM469.092 372V420.96H536.773V624H585.733V420.96H653.413V372H469.092ZM720.288 624V372H671.328V624H720.288ZM856.838 486.84H814.718C803.918 486.84 794.918 477.84 794.918 466.68V441.48C794.918 430.32 803.918 421.32 814.718 421.32H851.438C863.318 421.32 873.038 431.04 873.038 442.92V468.12H922.358V442.92C922.358 404.04 890.678 372.36 851.438 372.36H814.718C776.558 372.36 745.958 403.32 745.958 441.48V466.68C745.958 504.84 776.558 535.8 814.718 535.8H856.478C867.638 535.8 876.638 544.8 876.638 555.96C876.638 566.76 867.638 575.76 856.478 575.76H821.918C806.798 575.76 799.238 570.72 799.238 559.92V553.08H750.278V559.92C750.278 597.72 780.518 624.72 821.918 624.72H856.478C894.638 624.72 925.598 593.76 925.598 555.96C925.598 517.8 894.638 486.84 856.838 486.84ZM930.694 372V420.96H998.374V624H1047.33V420.96H1115.01V372H930.694ZM1211.72 372H1157L1087.88 624H1138.64L1148.36 587.64H1220.36L1230.44 624H1281.2L1211.72 372ZM1162.04 538.68L1184.36 457.32L1207.04 538.68H1162.04ZM1396.84 486.84H1354.72C1343.92 486.84 1334.92 477.84 1334.92 466.68V441.48C1334.92 430.32 1343.92 421.32 1354.72 421.32H1391.44C1403.32 421.32 1413.04 431.04 1413.04 442.92V468.12H1462.36V442.92C1462.36 404.04 1430.68 372.36 1391.44 372.36H1354.72C1316.56 372.36 1285.96 403.32 1285.96 441.48V466.68C1285.96 504.84 1316.56 535.8 1354.72 535.8H1396.48C1407.64 535.8 1416.64 544.8 1416.64 555.96C1416.64 566.76 1407.64 575.76 1396.48 575.76H1361.92C1346.8 575.76 1339.24 570.72 1339.24 559.92V553.08H1290.28V559.92C1290.28 597.72 1320.52 624.72 1361.92 624.72H1396.48C1434.64 624.72 1465.6 593.76 1465.6 555.96C1465.6 517.8 1434.64 486.84 1396.84 486.84ZM143.72 972V720H97.64L67.04 744.12L77.84 795.6L94.76 783.72V972H143.72ZM244.618 972V720H198.538L167.938 744.12L178.738 795.6L195.658 783.72V972H244.618ZM367.117 973.44C407.437 973.44 440.557 940.68 440.557 900.36V893.16C440.557 874.44 433.357 856.8 420.757 843.12C432.637 829.8 438.757 812.52 438.757 794.52C438.757 753.48 405.637 720 364.597 720H336.517C303.757 720 277.477 746.64 277.477 779.4V816.12H326.437V779.4C326.437 773.64 331.117 768.96 336.517 768.96H364.597C378.637 768.96 389.797 780.48 389.797 794.52C389.797 808.56 378.637 820.08 364.597 820.08H354.157V869.04H367.117C380.437 869.04 391.597 879.84 391.597 893.16V900.36C391.597 913.68 380.437 924.48 367.117 924.48H334.357C328.957 924.48 324.997 920.16 324.997 915.12V907.2H276.037V915.12C276.037 947.16 301.957 973.44 334.357 973.44H367.117ZM200.96 1068.36C191.6 1065.48 181.52 1064.04 171.8 1064.04C162.08 1064.04 152 1065.48 142.64 1068.36C101.24 1081.32 73.52 1119.12 73.52 1162.68V1225.68C73.52 1268.88 101.24 1306.68 142.64 1319.64C152 1322.52 162.08 1324.32 171.8 1324.32C181.52 1324.32 191.6 1322.52 200.96 1319.64C242.36 1306.68 270.44 1268.88 270.44 1225.68V1162.68C270.44 1119.12 242.36 1081.32 200.96 1068.36ZM221.48 1225.68C221.48 1253.04 199.16 1275 171.8 1275C144.44 1275 122.48 1253.04 122.48 1225.68V1162.68C122.48 1135.32 144.44 1113 171.8 1113C199.16 1113 221.48 1135.32 221.48 1162.68V1225.68ZM462.061 1194.36C472.501 1180.68 478.261 1163.76 478.261 1146.48C478.261 1103.28 443.341 1068 400.141 1068H300.781V1320H413.821C453.781 1320 485.821 1287.6 485.821 1248C485.821 1227.48 477.181 1208.04 462.061 1194.36ZM349.741 1116.96H400.141C416.341 1116.96 429.301 1130.28 429.301 1146.48C429.301 1162.68 416.341 1175.64 400.141 1175.64H349.741V1116.96ZM413.821 1271.04H349.741V1224.96H413.821C426.781 1224.96 436.861 1235.4 436.861 1248C436.861 1260.6 426.781 1271.04 413.821 1271.04ZM805.428 1068H750.708L694.188 1272.84C692.388 1273.2 690.588 1273.2 689.148 1273.2H682.308C661.788 1273.2 642.708 1266 630.468 1253.4L626.868 1249.44C667.548 1240.08 697.788 1203 697.788 1160.16C697.788 1109.4 656.388 1068 605.628 1068H520.668H513.828V1320H562.788V1253.76L595.548 1287.24C616.788 1309.56 648.108 1322.16 681.228 1322.16H689.868C698.508 1322.16 706.428 1321.08 713.988 1320C719.748 1318.92 732.348 1315.68 732.708 1315.32C749.988 1309.92 763.308 1302 775.548 1294.44C788.508 1286.88 798.948 1280.4 812.268 1278.24L823.788 1320H874.908L805.428 1068ZM562.788 1203V1116.96H605.628C629.388 1116.96 648.828 1136.4 648.828 1160.16C648.828 1183.92 629.388 1203 605.628 1203H562.788ZM750.708 1252.32L778.068 1153.32L799.308 1230.72C779.508 1235.04 764.028 1244.4 750.708 1252.32ZM990.432 1182.84H948.312C937.512 1182.84 928.512 1173.84 928.512 1162.68V1137.48C928.512 1126.32 937.512 1117.32 948.312 1117.32H985.032C996.912 1117.32 1006.63 1127.04 1006.63 1138.92V1164.12H1055.95V1138.92C1055.95 1100.04 1024.27 1068.36 985.032 1068.36H948.312C910.152 1068.36 879.552 1099.32 879.552 1137.48V1162.68C879.552 1200.84 910.152 1231.8 948.312 1231.8H990.072C1001.23 1231.8 1010.23 1240.8 1010.23 1251.96C1010.23 1262.76 1001.23 1271.76 990.072 1271.76H955.512C940.392 1271.76 932.832 1266.72 932.832 1255.92V1249.08H883.872V1255.92C883.872 1293.72 914.112 1320.72 955.512 1320.72H990.072C1028.23 1320.72 1059.19 1289.76 1059.19 1251.96C1059.19 1213.8 1028.23 1182.84 990.432 1182.84Z" fill="white"/>
<path d="M1548.36 940C1471.19 939.992 1395.55 918.498 1329.91 877.927C1264.27 837.355 1211.22 779.309 1176.7 710.29L1092.26 541.365C1084.3 525.465 1071.22 512.716 1055.11 505.182C1039.01 497.648 1020.84 495.771 1003.54 499.854C986.233 503.936 970.815 513.74 959.78 527.678C948.744 541.615 942.736 558.87 942.729 576.648V718.856H816L827.269 576.648C827.212 532.808 841.976 490.236 869.162 455.844C896.349 421.452 934.362 397.259 977.03 387.193C1019.7 377.128 1064.52 381.78 1104.21 400.396C1143.9 419.011 1176.13 450.497 1195.67 489.74L1280.12 658.665C1304.9 708.62 1343.17 750.634 1390.6 779.947C1438.04 809.259 1492.74 824.696 1548.5 824.509L1548.36 940Z" fill="#EC5F2A"/>
</svg>
