<svg width="1549" height="566" viewBox="0 0 1549 566" fill="none" xmlns="http://www.w3.org/2000/svg">
<path d="M1547.86 558C1470.69 557.992 1395.05 536.498 1329.41 495.927C1263.77 455.355 1210.72 397.309 1176.2 328.29L1091.76 159.365C1083.8 143.465 1070.72 130.716 1054.61 123.182C1038.51 115.648 1020.34 113.771 1003.04 117.854C985.733 121.936 970.315 131.74 959.28 145.678C948.244 159.615 942.236 176.87 942.229 194.648V336.856H605.63V194.648C605.623 176.87 599.615 159.615 588.579 145.678C577.543 131.74 562.126 121.936 544.824 117.854C527.521 113.771 509.347 115.648 493.245 123.182C477.143 130.716 464.056 143.465 456.102 159.365L371.656 328.29C337.14 397.309 284.091 455.355 218.449 495.927C152.808 536.498 77.1671 557.992 0 558V442.509C55.764 442.697 110.465 427.256 157.901 397.939C205.337 368.621 243.61 326.599 268.38 276.637L352.827 107.712C372.412 68.5442 404.647 37.1367 444.309 18.5775C483.972 0.0183296 528.74 -4.60524 571.358 5.45582C613.977 15.5169 651.95 39.6732 679.126 74.0111C706.302 108.349 721.089 150.857 721.09 194.648V221.393H826.769V194.648C826.712 150.808 841.476 108.236 868.662 73.8438C895.849 39.4517 933.862 15.2589 976.53 5.19336C1019.2 -4.87221 1064.02 -0.219501 1103.71 18.396C1143.4 37.0115 1175.63 68.4967 1195.17 107.74L1279.62 276.665C1304.4 326.62 1342.67 368.634 1390.11 397.947C1437.54 427.259 1492.24 442.696 1548 442.509L1547.86 558Z" fill="#EC5F2A"/>
<path d="M189.04 239V183H199.96V144.92H189.04V66.24H150.96V144.92H110.92L128 43H89.36L65.84 183H150.96V239H189.04ZM336.071 239.28V206.52H262.151C263.551 200.36 272.231 197 280.351 193.36L282.031 192.8C307.791 181.88 320.671 176.28 329.071 165.64C335.511 157.24 338.871 146.6 338.871 133.44V100.12C338.871 68.48 313.111 42.72 281.471 42.72H275.031C243.391 42.72 217.631 68.48 217.631 100.12V119.44H255.711V100.12C255.711 89.48 264.391 80.8 275.031 80.8H281.471C292.111 80.8 300.791 89.48 300.791 100.12V133.44C300.791 141.28 296.311 148.28 289.031 151.36L234.991 173.76C227.151 177.12 221.831 184.96 221.831 193.64V239.28H336.071ZM503.793 43H461.233L407.473 239H446.953L454.513 210.72H510.513L518.353 239H557.833L503.793 43ZM465.153 172.64L482.513 109.36L500.153 172.64H465.153ZM709.291 202.6H703.971C688.291 202.6 673.451 197 663.931 187.2L661.131 184.12C692.771 176.84 716.291 148 716.291 114.68C716.291 75.2 684.091 43 644.611 43H578.531H573.211V239H611.291V187.48L636.771 213.52C653.291 230.88 677.651 240.68 703.411 240.68L711.531 240.4L710.131 207.64L709.291 202.6ZM611.291 81.08H644.611C663.091 81.08 678.211 96.2 678.211 114.68C678.211 133.16 663.091 148 644.611 148H611.291V81.08ZM723.26 43V81.08H775.9V239H813.98V81.08H866.62V43H723.26ZM918.635 239V43H880.555V239H918.635ZM1024.84 132.32H992.08C983.68 132.32 976.68 125.32 976.68 116.64V97.04C976.68 88.36 983.68 81.36 992.08 81.36H1020.64C1029.88 81.36 1037.44 88.92 1037.44 98.16V117.76H1075.8V98.16C1075.8 67.92 1051.16 43.28 1020.64 43.28H992.08C962.4 43.28 938.6 67.36 938.6 97.04V116.64C938.6 146.32 962.4 170.4 992.08 170.4H1024.56C1033.24 170.4 1040.24 177.4 1040.24 186.08C1040.24 194.48 1033.24 201.48 1024.56 201.48H997.68C985.92 201.48 980.04 197.56 980.04 189.16V183.84H941.96V189.16C941.96 218.56 965.48 239.56 997.68 239.56H1024.56C1054.24 239.56 1078.32 215.48 1078.32 186.08C1078.32 156.4 1054.24 132.32 1024.84 132.32ZM1082.28 43V81.08H1134.92V239H1173V81.08H1225.64V43H1082.28ZM121.56 510V314H85.72L61.92 332.76L70.32 372.8L83.48 363.56V510H121.56ZM205.357 512.8H226.917C233.357 512.8 239.517 511.68 245.117 509.72C268.077 501.88 283.197 480.6 283.197 456.52V445.32C283.197 414.24 257.997 389.04 226.917 389.04H205.357C199.197 389.04 192.757 390.16 187.157 392.12V369.72C187.157 359.92 195.277 351.8 205.077 351.8H222.437C232.517 351.8 240.637 359.92 240.637 370V375.32H273.117H278.717V369.72C278.717 338.92 253.517 313.72 222.437 313.72H205.077C174.277 313.72 149.077 338.92 149.077 369.72V457.08C149.077 480.88 164.477 501.88 186.877 509.72C192.757 511.68 198.917 512.8 205.357 512.8ZM187.157 456.8V445.32C187.157 435.24 195.277 427.12 205.357 427.12H226.917C236.997 427.12 245.117 435.24 245.117 445.32V456.52C245.117 466.6 236.997 474.72 226.917 474.72H205.357C195.277 474.72 187.157 466.6 187.157 456.8ZM425.563 510V454H436.483V415.92H425.563V337.24H387.483V415.92H347.443L364.523 314H325.883L302.363 454H387.483V510H425.563ZM611.51 314.28C604.23 312.04 596.39 310.92 588.83 310.92C581.27 310.92 573.43 312.04 566.15 314.28C533.95 324.36 512.39 353.76 512.39 387.64V436.64C512.39 470.24 533.95 499.64 566.15 509.72C573.43 511.96 581.27 513.36 588.83 513.36C596.39 513.36 604.23 511.96 611.51 509.72C643.71 499.64 665.55 470.24 665.55 436.64V387.64C665.55 353.76 643.71 324.36 611.51 314.28ZM627.47 436.64C627.47 457.92 610.11 475 588.83 475C567.55 475 550.47 457.92 550.47 436.64V387.64C550.47 366.36 567.55 349 588.83 349C610.11 349 627.47 366.36 627.47 387.64V436.64ZM814.588 412.28C822.708 401.64 827.188 388.48 827.188 375.04C827.188 341.44 800.028 314 766.428 314H689.148V510H777.068C808.148 510 833.068 484.8 833.068 454C833.068 438.04 826.348 422.92 814.588 412.28ZM727.228 352.08H766.428C779.028 352.08 789.108 362.44 789.108 375.04C789.108 387.64 779.028 397.72 766.428 397.72H727.228V352.08ZM777.068 471.92H727.228V436.08H777.068C787.148 436.08 794.988 444.2 794.988 454C794.988 463.8 787.148 471.92 777.068 471.92ZM1081.65 314H1039.09L995.132 473.32C993.732 473.6 992.332 473.6 991.212 473.6H985.892C969.932 473.6 955.092 468 945.572 458.2L942.772 455.12C974.412 447.84 997.932 419 997.932 385.68C997.932 346.2 965.732 314 926.252 314H860.172H854.852V510H892.932V458.48L918.412 484.52C934.932 501.88 959.292 511.68 985.052 511.68H991.772C998.492 511.68 1004.65 510.84 1010.53 510C1015.01 509.16 1024.81 506.64 1025.09 506.36C1038.53 502.16 1048.89 496 1058.41 490.12C1068.49 484.24 1076.61 479.2 1086.97 477.52L1095.93 510H1135.69L1081.65 314ZM892.932 419V352.08H926.252C944.732 352.08 959.852 367.2 959.852 385.68C959.852 404.16 944.732 419 926.252 419H892.932ZM1039.09 457.36L1060.37 380.36L1076.89 440.56C1061.49 443.92 1049.45 451.2 1039.09 457.36ZM1225.54 403.32H1192.78C1184.38 403.32 1177.38 396.32 1177.38 387.64V368.04C1177.38 359.36 1184.38 352.36 1192.78 352.36H1221.34C1230.58 352.36 1238.14 359.92 1238.14 369.16V388.76H1276.5V369.16C1276.5 338.92 1251.86 314.28 1221.34 314.28H1192.78C1163.1 314.28 1139.3 338.36 1139.3 368.04V387.64C1139.3 417.32 1163.1 441.4 1192.78 441.4H1225.26C1233.94 441.4 1240.94 448.4 1240.94 457.08C1240.94 465.48 1233.94 472.48 1225.26 472.48H1198.38C1186.62 472.48 1180.74 468.56 1180.74 460.16V454.84H1142.66V460.16C1142.66 489.56 1166.18 510.56 1198.38 510.56H1225.26C1254.94 510.56 1279.02 486.48 1279.02 457.08C1279.02 427.4 1254.94 403.32 1225.54 403.32Z" fill="white"/>
<path d="M1548.36 558C1471.19 557.992 1395.55 536.498 1329.91 495.927C1264.27 455.355 1211.22 397.309 1176.7 328.29L1092.26 159.365C1084.3 143.465 1071.22 130.716 1055.11 123.182C1039.01 115.648 1020.84 113.771 1003.54 117.854C986.233 121.936 970.815 131.74 959.78 145.678C948.744 159.615 942.736 176.87 942.729 194.648V336.856H816L827.269 194.648C827.212 150.808 841.976 108.236 869.162 73.8438C896.349 39.4517 934.362 15.2589 977.03 5.19336C1019.7 -4.87221 1064.52 -0.219501 1104.21 18.396C1143.9 37.0115 1176.13 68.4967 1195.67 107.74L1280.12 276.665C1304.9 326.62 1343.17 368.634 1390.6 397.947C1438.04 427.259 1492.74 442.696 1548.5 442.509L1548.36 558Z" fill="#EC5F2A"/>
<path d="M1082.44 43V81.08H1135.08V239H1173.16V81.08H1225.8V43H1082.44ZM1301.02 43H1258.46L1204.7 239H1244.18L1251.74 210.72H1307.74L1315.58 239H1355.06L1301.02 43ZM1262.38 172.64L1279.74 109.36L1297.38 172.64H1262.38ZM1445 132.32H1412.24C1403.84 132.32 1396.84 125.32 1396.84 116.64V97.04C1396.84 88.36 1403.84 81.36 1412.24 81.36H1440.8C1450.04 81.36 1457.6 88.92 1457.6 98.16V117.76H1495.96V98.16C1495.96 67.92 1471.32 43.28 1440.8 43.28H1412.24C1382.56 43.28 1358.76 67.36 1358.76 97.04V116.64C1358.76 146.32 1382.56 170.4 1412.24 170.4H1444.72C1453.4 170.4 1460.4 177.4 1460.4 186.08C1460.4 194.48 1453.4 201.48 1444.72 201.48H1417.84C1406.08 201.48 1400.2 197.56 1400.2 189.16V183.84H1362.12V189.16C1362.12 218.56 1385.64 239.56 1417.84 239.56H1444.72C1474.4 239.56 1498.48 215.48 1498.48 186.08C1498.48 156.4 1474.4 132.32 1445 132.32Z" fill="white"/>
</svg>
