<svg width="1549" height="591" viewBox="0 0 1549 591" fill="none" xmlns="http://www.w3.org/2000/svg">
<path d="M1547.86 591C1470.69 590.992 1395.05 569.498 1329.41 528.927C1263.77 488.355 1210.72 430.309 1176.2 361.29L1091.76 192.365C1083.8 176.465 1070.72 163.716 1054.61 156.182C1038.51 148.648 1020.34 146.771 1003.04 150.854C985.733 154.936 970.315 164.74 959.28 178.678C948.244 192.615 942.236 209.87 942.229 227.648V369.856H605.63V227.648C605.623 209.87 599.615 192.615 588.579 178.678C577.543 164.74 562.126 154.936 544.824 150.854C527.521 146.771 509.347 148.648 493.245 156.182C477.143 163.716 464.056 176.465 456.102 192.365L371.656 361.29C337.14 430.309 284.091 488.355 218.449 528.927C152.808 569.498 77.1671 590.992 0 591V475.509C55.764 475.697 110.465 460.256 157.901 430.939C205.337 401.621 243.61 359.599 268.38 309.637L352.827 140.712C372.412 101.544 404.647 70.1367 444.309 51.5775C483.972 33.0183 528.74 28.3948 571.358 38.4558C613.977 48.5169 651.95 72.6732 679.126 107.011C706.302 141.349 721.089 183.857 721.09 227.648V254.393H826.769V227.648C826.712 183.808 841.476 141.236 868.662 106.844C895.849 72.4517 933.862 48.2589 976.53 38.1934C1019.2 28.1278 1064.02 32.7805 1103.71 51.396C1143.4 70.0115 1175.63 101.497 1195.17 140.74L1279.62 309.665C1304.4 359.62 1342.67 401.634 1390.11 430.947C1437.54 460.259 1492.24 475.696 1548 475.509L1547.86 591Z" fill="#EC5F2A"/>
<path d="M181.04 216V160H191.96V121.92H181.04V43.24H142.96V121.92H102.92L120 20H81.36L57.84 160H142.96V216H181.04ZM271.198 218.52H276.798C308.718 218.52 334.758 192.48 334.758 160.56V128.92C334.758 98.68 310.398 73.76 280.158 73.2L254.678 72.92V52.48H328.318V20H216.598V110.44L279.598 111.28C289.118 111.56 296.678 119.4 296.678 128.92V160.56C296.678 171.48 287.718 180.44 276.798 180.44H271.198C260.278 180.44 251.318 171.48 251.318 160.56V140.96H213.238V160.56C213.238 192.48 238.998 218.52 271.198 218.52ZM498.801 20H456.241L402.481 216H441.961L449.521 187.72H505.521L513.361 216H552.841L498.801 20ZM460.161 149.64L477.521 86.36L495.161 149.64H460.161ZM704.299 179.6H698.979C683.299 179.6 668.459 174 658.939 164.2L656.139 161.12C687.779 153.84 711.299 125 711.299 91.68C711.299 52.2 679.099 20 639.619 20H573.539H568.219V216H606.299V164.48L631.779 190.52C648.299 207.88 672.659 217.68 698.419 217.68L706.539 217.4L705.139 184.64L704.299 179.6ZM606.299 58.08H639.619C658.099 58.08 673.219 73.2 673.219 91.68C673.219 110.16 658.099 125 639.619 125H606.299V58.08ZM718.268 20V58.08H770.908V216H808.988V58.08H861.628V20H718.268ZM913.643 216V20H875.563V216H913.643ZM1019.85 109.32H987.088C978.688 109.32 971.688 102.32 971.688 93.64V74.04C971.688 65.36 978.688 58.36 987.088 58.36H1015.65C1024.89 58.36 1032.45 65.92 1032.45 75.16V94.76H1070.81V75.16C1070.81 44.92 1046.17 20.28 1015.65 20.28H987.088C957.408 20.28 933.608 44.36 933.608 74.04V93.64C933.608 123.32 957.408 147.4 987.088 147.4H1019.57C1028.25 147.4 1035.25 154.4 1035.25 163.08C1035.25 171.48 1028.25 178.48 1019.57 178.48H992.688C980.928 178.48 975.048 174.56 975.048 166.16V160.84H936.968V166.16C936.968 195.56 960.488 216.56 992.688 216.56H1019.57C1049.25 216.56 1073.33 192.48 1073.33 163.08C1073.33 133.4 1049.25 109.32 1019.85 109.32ZM1077.29 20V58.08H1129.93V216H1168.01V58.08H1220.65V20H1077.29ZM1295.87 20H1253.31L1199.55 216H1239.03L1246.59 187.72H1302.59L1310.43 216H1349.91L1295.87 20ZM1257.23 149.64L1274.59 86.36L1292.23 149.64H1257.23ZM1439.85 109.32H1407.09C1398.69 109.32 1391.69 102.32 1391.69 93.64V74.04C1391.69 65.36 1398.69 58.36 1407.09 58.36H1435.65C1444.89 58.36 1452.45 65.92 1452.45 75.16V94.76H1490.81V75.16C1490.81 44.92 1466.17 20.28 1435.65 20.28H1407.09C1377.41 20.28 1353.61 44.36 1353.61 74.04V93.64C1353.61 123.32 1377.41 147.4 1407.09 147.4H1439.57C1448.25 147.4 1455.25 154.4 1455.25 163.08C1455.25 171.48 1448.25 178.48 1439.57 178.48H1412.69C1400.93 178.48 1395.05 174.56 1395.05 166.16V160.84H1356.97V166.16C1356.97 195.56 1380.49 216.56 1412.69 216.56H1439.57C1469.25 216.56 1493.33 192.48 1493.33 163.08C1493.33 133.4 1469.25 109.32 1439.85 109.32ZM113.56 487V291H77.72L53.92 309.76L62.32 349.8L75.48 340.56V487H113.56ZM203.237 487V291H167.397L143.597 309.76L151.997 349.8L165.157 340.56V487H203.237ZM309.713 488.12C341.073 488.12 366.833 462.64 366.833 431.28V425.68C366.833 411.12 361.233 397.4 351.433 386.76C360.673 376.4 365.433 362.96 365.433 348.96C365.433 317.04 339.673 291 307.753 291H285.913C260.433 291 239.993 311.72 239.993 337.2V365.76H278.073V337.2C278.073 332.72 281.713 329.08 285.913 329.08H307.753C318.673 329.08 327.353 338.04 327.353 348.96C327.353 359.88 318.673 368.84 307.753 368.84H299.633V406.92H309.713C320.073 406.92 328.753 415.32 328.753 425.68V431.28C328.753 441.64 320.073 450.04 309.713 450.04H284.233C280.033 450.04 276.953 446.68 276.953 442.76V436.6H238.873V442.76C238.873 467.68 259.033 488.12 284.233 488.12H309.713ZM564.091 291.28C556.811 289.04 548.971 287.92 541.411 287.92C533.851 287.92 526.011 289.04 518.731 291.28C486.531 301.36 464.971 330.76 464.971 364.64V413.64C464.971 447.24 486.531 476.64 518.731 486.72C526.011 488.96 533.851 490.36 541.411 490.36C548.971 490.36 556.811 488.96 564.091 486.72C596.291 476.64 618.131 447.24 618.131 413.64V364.64C618.131 330.76 596.291 301.36 564.091 291.28ZM580.051 413.64C580.051 434.92 562.691 452 541.411 452C520.131 452 503.051 434.92 503.051 413.64V364.64C503.051 343.36 520.131 326 541.411 326C562.691 326 580.051 343.36 580.051 364.64V413.64ZM778.37 389.28C786.49 378.64 790.97 365.48 790.97 352.04C790.97 318.44 763.81 291 730.21 291H652.93V487H740.85C771.93 487 796.85 461.8 796.85 431C796.85 415.04 790.13 399.92 778.37 389.28ZM691.01 329.08H730.21C742.81 329.08 752.89 339.44 752.89 352.04C752.89 364.64 742.81 374.72 730.21 374.72H691.01V329.08ZM740.85 448.92H691.01V413.08H740.85C750.93 413.08 758.77 421.2 758.77 431C758.77 440.8 750.93 448.92 740.85 448.92ZM1056.63 291H1014.07L970.113 450.32C968.713 450.6 967.313 450.6 966.193 450.6H960.873C944.913 450.6 930.073 445 920.553 435.2L917.753 432.12C949.393 424.84 972.913 396 972.913 362.68C972.913 323.2 940.713 291 901.233 291H835.153H829.833V487H867.913V435.48L893.393 461.52C909.913 478.88 934.273 488.68 960.033 488.68H966.753C973.473 488.68 979.633 487.84 985.513 487C989.993 486.16 999.793 483.64 1000.07 483.36C1013.51 479.16 1023.87 473 1033.39 467.12C1043.47 461.24 1051.59 456.2 1061.95 454.52L1070.91 487H1110.67L1056.63 291ZM867.913 396V329.08H901.233C919.713 329.08 934.833 344.2 934.833 362.68C934.833 381.16 919.713 396 901.233 396H867.913ZM1014.07 434.36L1035.35 357.36L1051.87 417.56C1036.47 420.92 1024.43 428.2 1014.07 434.36ZM1211.72 380.32H1178.96C1170.56 380.32 1163.56 373.32 1163.56 364.64V345.04C1163.56 336.36 1170.56 329.36 1178.96 329.36H1207.52C1216.76 329.36 1224.32 336.92 1224.32 346.16V365.76H1262.68V346.16C1262.68 315.92 1238.04 291.28 1207.52 291.28H1178.96C1149.28 291.28 1125.48 315.36 1125.48 345.04V364.64C1125.48 394.32 1149.28 418.4 1178.96 418.4H1211.44C1220.12 418.4 1227.12 425.4 1227.12 434.08C1227.12 442.48 1220.12 449.48 1211.44 449.48H1184.56C1172.8 449.48 1166.92 445.56 1166.92 437.16V431.84H1128.84V437.16C1128.84 466.56 1152.36 487.56 1184.56 487.56H1211.44C1241.12 487.56 1265.2 463.48 1265.2 434.08C1265.2 404.4 1241.12 380.32 1211.72 380.32Z" fill="white"/>
<path d="M1548.36 591C1471.19 590.992 1395.55 569.498 1329.91 528.927C1264.27 488.355 1211.22 430.309 1176.7 361.29L1092.26 192.365C1084.3 176.465 1071.22 163.716 1055.11 156.182C1039.01 148.648 1020.84 146.771 1003.54 150.854C986.233 154.936 970.815 164.74 959.78 178.678C948.744 192.615 942.736 209.87 942.729 227.648V369.856H816L827.269 227.648C827.212 183.808 841.976 141.236 869.162 106.844C896.349 72.4517 934.362 48.2589 977.03 38.1934C1019.7 28.1278 1064.52 32.7805 1104.21 51.396C1143.9 70.0115 1176.13 101.497 1195.67 140.74L1280.12 309.665C1304.9 359.62 1343.17 401.634 1390.6 430.947C1438.04 460.259 1492.74 475.696 1548.5 475.509L1548.36 591Z" fill="#EC5F2A"/>
<path d="M1296.02 19H1253.46L1199.7 215H1239.18L1246.74 186.72H1302.74L1310.58 215H1350.06L1296.02 19ZM1257.38 148.64L1274.74 85.36L1292.38 148.64H1257.38ZM1440 108.32H1407.24C1398.84 108.32 1391.84 101.32 1391.84 92.64V73.04C1391.84 64.36 1398.84 57.36 1407.24 57.36H1435.8C1445.04 57.36 1452.6 64.92 1452.6 74.16V93.76H1490.96V74.16C1490.96 43.92 1466.32 19.28 1435.8 19.28H1407.24C1377.56 19.28 1353.76 43.36 1353.76 73.04V92.64C1353.76 122.32 1377.56 146.4 1407.24 146.4H1439.72C1448.4 146.4 1455.4 153.4 1455.4 162.08C1455.4 170.48 1448.4 177.48 1439.72 177.48H1412.84C1401.08 177.48 1395.2 173.56 1395.2 165.16V159.84H1357.12V165.16C1357.12 194.56 1380.64 215.56 1412.84 215.56H1439.72C1469.4 215.56 1493.48 191.48 1493.48 162.08C1493.48 132.4 1469.4 108.32 1440 108.32Z" fill="white"/>
</svg>
