<svg id="Layer_1" data-name="Layer 1" xmlns="http://www.w3.org/2000/svg" viewBox="0 0 1080 1080"><polygon points="266.86 586.56 237.06 694.7 207.33 586.56 164.05 586.56 164.05 750.19 195.87 750.19 195.87 664.89 219.31 750.19 254.78 750.19 278.37 664.62 278.37 750.19 310.18 750.19 310.18 586.56 266.86 586.56"/><path d="M375.53,694.72h29.19L390.1,641.83l-14.57,52.89ZM453,750.19H420l-6.51-23.65H366.76l-6.51,23.65h-33l45.1-163.63h35.51Z"/><path d="M502.05,674.24H530a27.94,27.94,0,0,0,0-55.87h-27.9Zm83.69,77.18-6.67.13c-21.52,0-41.88-8.23-55.84-22.57L502,707.08v43.09H470.15V586.59l4.63,0H530a59.75,59.75,0,0,1,13.8,117.88l2.29,2.37c8,8.2,20.22,12.91,33.54,12.91h6.16Z"/><polygon points="719.69 586.55 719.69 618.38 675.72 618.38 675.72 750.17 643.91 750.17 643.91 618.38 599.93 618.38 599.93 586.55 719.69 586.55"/><rect x="735.79" y="586.59" width="31.82" height="163.59"/><path d="M827.55,674.24h27.9a27.94,27.94,0,0,0,0-55.87h-27.9Zm83.69,77.18-6.67.13c-21.52,0-41.88-8.23-55.84-22.57l-21.26-21.9v43.09H795.65V586.59l4.63,0h55.17a59.75,59.75,0,0,1,13.8,117.88l2.29,2.37c8,8.2,20.22,12.91,33.54,12.91h6.16Z"/><path d="M825.61,525.72a146.94,146.94,0,0,1-131.45-81.25l-29.88-59.75a27.92,27.92,0,0,0-52.89,12.49v50.3h-119v-50.3a27.92,27.92,0,0,0-52.89-12.49l-29.88,59.75a147,147,0,0,1-131.46,81.25V484.88A105.55,105.55,0,0,0,373,426.21l29.88-59.75a68.76,68.76,0,0,1,130.26,30.75v9.45h37.37v-9.45a68.76,68.76,0,0,1,130.26-30.75l29.88,59.75a105.55,105.55,0,0,0,94.92,58.67Z"/></svg>