<svg width="159" height="35" viewBox="0 0 159 35" fill="none" xmlns="http://www.w3.org/2000/svg">
<path d="M21.7629 0.00195312L15.4548 22.8931L9.16154 0.00195312H0V34.6393H6.73568V16.5829L11.6975 34.6393H19.2058L24.1993 16.5257V34.6393H30.9329V0.00195312H21.7629Z" fill="black"/>
<path d="M44.7663 22.8973H50.9453L47.8505 11.7015L44.7663 22.8973V22.8973ZM61.1652 34.6393H54.1798L52.8017 29.633H42.9099L41.5318 34.6393H34.5464L44.0932 0.00195312H51.61L61.1652 34.6393Z" fill="black"/>
<path d="M71.548 18.5621H77.4645C79.0134 18.5328 80.489 17.8969 81.5741 16.7911C82.6591 15.6854 83.267 14.198 83.267 12.6488C83.267 11.0996 82.6591 9.61224 81.5741 8.50647C80.489 7.4007 79.0134 6.76481 77.4645 6.73551H71.5586L71.548 18.5621ZM89.2636 34.8996L87.8517 34.9271C83.2963 34.9271 78.9865 33.185 76.0314 30.1495L71.5374 25.5137V34.635H64.7954V0.00830078H65.7755H77.4645C80.5636 0.00928718 83.5545 1.14806 85.8694 3.20847C88.1844 5.26889 89.6623 8.10753 90.0226 11.1856C90.3829 14.2637 89.6006 17.3669 87.8242 19.9063C86.0477 22.4457 83.4008 24.2445 80.3857 24.9612L80.8705 25.4629C82.5639 27.1987 85.1506 28.1957 87.9702 28.1957H89.2742L89.2636 34.8996Z" fill="black"/>
<path d="M117.618 0V6.7378H108.311V34.6352H101.577V6.7378H92.2673V0H117.618Z" fill="black"/>
<path d="M127.762 0.00830078H121.026V34.6371H127.762V0.00830078Z" fill="black"/>
<path d="M140.45 18.5621H146.356C147.905 18.5328 149.381 17.8969 150.466 16.7911C151.551 15.6854 152.159 14.198 152.159 12.6488C152.159 11.0996 151.551 9.61224 150.466 8.50647C149.381 7.4007 147.905 6.76481 146.356 6.73551H140.45V18.5621ZM158.166 34.8996L156.754 34.9271C152.199 34.9271 147.889 33.185 144.934 30.1495L140.433 25.5137V34.635H133.698V0.00830078H134.678H146.356C149.455 0.00928718 152.446 1.14806 154.761 3.20847C157.076 5.26889 158.554 8.10753 158.914 11.1856C159.275 14.2637 158.492 17.3669 156.716 19.9063C154.939 22.4457 152.293 24.2445 149.277 24.9612L149.762 25.4629C151.456 27.1987 154.042 28.1957 156.862 28.1957H158.166V34.8996Z" fill="black"/>
</svg>
