<svg width="947" height="592" viewBox="0 0 947 592" fill="none" xmlns="http://www.w3.org/2000/svg">
<path d="M194.81 342.108L165.01 450.248L135.28 342.108H92V505.738H123.82V420.438L147.26 505.738H182.73L206.32 420.168V505.738H238.13V342.108H194.81Z" fill="black"/>
<path d="M303.48 450.268H332.67L318.05 397.378L303.48 450.268V450.268ZM380.95 505.738H347.95L341.44 482.088H294.71L288.2 505.738H255.2L300.3 342.108H335.81L380.95 505.738Z" fill="black"/>
<path d="M430 429.788H457.95C465.267 429.65 472.238 426.646 477.364 421.422C482.49 416.198 485.361 409.172 485.361 401.853C485.361 394.535 482.49 387.508 477.364 382.284C472.238 377.061 465.267 374.057 457.95 373.918H430.05L430 429.788ZM513.69 506.968L507.02 507.098C485.5 507.098 465.14 498.868 451.18 484.528L429.95 462.628V505.718H398.1V342.138H402.73H457.95C472.59 342.143 486.719 347.523 497.656 357.256C508.592 366.99 515.573 380.4 517.276 394.941C518.978 409.482 515.282 424.142 506.89 436.138C498.498 448.135 485.993 456.632 471.75 460.018L474.04 462.388C482.04 470.588 494.26 475.298 507.58 475.298H513.74L513.69 506.968Z" fill="black"/>
<path d="M647.64 342.098V373.928H603.67V505.718H571.86V373.928H527.88V342.098H647.64Z" fill="black"/>
<path d="M695.56 342.138H663.74V505.728H695.56V342.138Z" fill="black"/>
<path d="M755.5 429.788H783.4C790.717 429.65 797.688 426.646 802.814 421.422C807.94 416.198 810.811 409.172 810.811 401.853C810.811 394.535 807.94 387.508 802.814 382.284C797.688 377.061 790.717 374.057 783.4 373.918H755.5V429.788ZM839.19 506.968L832.52 507.098C811 507.098 790.64 498.868 776.68 484.528L755.42 462.628V505.718H723.6V342.138H728.23H783.4C798.04 342.143 812.17 347.523 823.106 357.256C834.042 366.99 841.023 380.4 842.726 394.941C844.428 409.482 840.732 424.142 832.34 436.138C823.948 448.135 811.443 456.632 797.2 460.018L799.49 462.388C807.49 470.588 819.71 475.298 833.03 475.298H839.19V506.968Z" fill="black"/>
<path d="M753.56 281.268C726.265 281.27 699.509 273.67 676.291 259.319C653.074 244.968 634.312 224.433 622.11 200.018L592.23 140.268C589.416 134.644 584.786 130.134 579.09 127.469C573.393 124.804 566.964 124.141 560.843 125.586C554.723 127.032 549.269 130.501 545.366 135.433C541.464 140.364 539.34 146.469 539.34 152.758V203.058H420.34V152.758C420.34 146.469 418.216 140.364 414.314 135.433C410.411 130.501 404.957 127.032 398.837 125.586C392.716 124.141 386.287 124.804 380.59 127.469C374.894 130.134 370.264 134.644 367.45 140.268L337.57 200.018C325.361 224.431 306.597 244.962 283.379 259.312C260.16 273.663 233.405 281.265 206.11 281.268V240.428C225.82 240.479 245.149 235.01 261.911 224.641C278.673 214.272 292.196 199.417 300.95 181.758L330.83 122.008C337.757 108.154 349.159 97.0452 363.189 90.4807C377.218 83.9162 393.053 82.2808 408.128 85.8394C423.203 89.3981 436.634 97.9423 446.247 110.088C455.859 122.233 461.09 137.269 461.09 152.758V162.208H498.46V152.758C498.46 137.269 503.691 122.233 513.303 110.088C522.916 97.9423 536.347 89.3981 551.422 85.8394C566.497 82.2808 582.332 83.9162 596.361 90.4807C610.391 97.0452 621.793 108.154 628.72 122.008L658.6 181.758C667.36 199.429 680.896 214.292 697.673 224.662C714.45 235.032 733.797 240.494 753.52 240.428L753.56 281.268Z" fill="black"/>
</svg>
